<mxfile host="app.diagrams.net" agent="Mozilla/5.0 (Macintosh; Intel Mac OS X 10_15_7) AppleWebKit/537.36 (KHTML, like Gecko) Chrome/132.0.0.0 Safari/537.36" version="26.0.6">
  <diagram name="Page-1" id="FEj8SYfcT7ym5FK0Dz9W">
    <mxGraphModel dx="934" dy="561" grid="1" gridSize="10" guides="1" tooltips="1" connect="1" arrows="1" fold="1" page="1" pageScale="1" pageWidth="827" pageHeight="1169" math="0" shadow="0">
      <root>
        <mxCell id="0" />
        <mxCell id="1" parent="0" />
        <mxCell id="PECQSQRH2D3EpLsyw-6w-1" value="&lt;font style=&quot;font-size: 18px;&quot;&gt;&lt;b&gt;Supply Chain &amp;amp; Achats&lt;/b&gt;&lt;/font&gt;" style="rounded=1;whiteSpace=wrap;html=1;verticalAlign=top;" vertex="1" parent="1">
          <mxGeometry x="40" y="120" width="720" height="220" as="geometry" />
        </mxCell>
        <mxCell id="PECQSQRH2D3EpLsyw-6w-2" value="" style="shape=flexArrow;endArrow=classic;html=1;rounded=0;endWidth=20;endSize=4.31;" edge="1" parent="1">
          <mxGeometry width="50" height="50" relative="1" as="geometry">
            <mxPoint x="65" y="170" as="sourcePoint" />
            <mxPoint x="735" y="170" as="targetPoint" />
          </mxGeometry>
        </mxCell>
        <mxCell id="PECQSQRH2D3EpLsyw-6w-3" value="&lt;font style=&quot;font-size: 14px;&quot;&gt;Flux de biens et marchandises&lt;/font&gt;" style="edgeLabel;html=1;align=center;verticalAlign=middle;resizable=0;points=[];" vertex="1" connectable="0" parent="PECQSQRH2D3EpLsyw-6w-2">
          <mxGeometry x="0.0269" relative="1" as="geometry">
            <mxPoint as="offset" />
          </mxGeometry>
        </mxCell>
        <mxCell id="PECQSQRH2D3EpLsyw-6w-4" value="" style="shape=flexArrow;endArrow=classic;html=1;rounded=0;endWidth=20;endSize=4.31;" edge="1" parent="1">
          <mxGeometry width="50" height="50" relative="1" as="geometry">
            <mxPoint x="725" y="210" as="sourcePoint" />
            <mxPoint x="75" y="210" as="targetPoint" />
          </mxGeometry>
        </mxCell>
        <mxCell id="PECQSQRH2D3EpLsyw-6w-5" value="&lt;font style=&quot;font-size: 14px;&quot;&gt;Contrat&lt;/font&gt;" style="edgeLabel;html=1;align=center;verticalAlign=middle;resizable=0;points=[];" vertex="1" connectable="0" parent="PECQSQRH2D3EpLsyw-6w-4">
          <mxGeometry x="0.0269" relative="1" as="geometry">
            <mxPoint as="offset" />
          </mxGeometry>
        </mxCell>
      </root>
    </mxGraphModel>
  </diagram>
</mxfile>
